<svg xmlns="http://www.w3.org/2000/svg" fill="none" viewBox="0 0 24 24" id="Rust--Streamline-Svg-Logos" height="24" width="24">
  <path fill="currentColor" d="m23.58925 11.7117 -0.98655 -0.6107c-0.0083 -0.0961 -0.017725 -0.19195 -0.02805 -0.287375l0.8478 -0.790775c0.0862 -0.080375 0.124825 -0.199375 0.101475 -0.314575 -0.022675 -0.115625 -0.103725 -0.210825 -0.213975 -0.2519l-1.083775 -0.405275c-0.027175 -0.09385 -0.055675 -0.187025 -0.084875 -0.27975l0.67605 -0.93895c0.068925 -0.095425 0.083075 -0.2196 0.038175 -0.328475 -0.0449 -0.10845 -0.143025 -0.18615 -0.2591 -0.205225l-1.142825 -0.1859c-0.044475 -0.086675 -0.090725 -0.172 -0.137425 -0.25665l0.480275 -1.054125c0.04915 -0.107325 0.03905 -0.23215 -0.0265 -0.3296 -0.06535 -0.0979 -0.176025 -0.15515 -0.294125 -0.15065l-1.1599 0.0404c-0.05995 -0.074975 -0.121025 -0.1493 -0.1832 -0.222275l0.2665 -1.1298c0.02695 -0.114725 -0.00695 -0.23485 -0.090475 -0.31815 -0.08285 -0.083075 -0.2032 -0.117425 -0.317925 -0.090475L18.86125 3.86775c-0.0732 -0.061975 -0.147525 -0.123275 -0.222725 -0.1832l0.040625 -1.1599c0.0045 -0.117425 -0.05275 -0.229015 -0.15065 -0.294125 -0.098125 -0.0655625 -0.222275 -0.07544 -0.329375 -0.02672l-1.053925 0.48047c-0.0851 -0.0467 -0.1704 -0.09295 -0.256625 -0.137625l-0.18635 -1.1430475c-0.018875 -0.115855 -0.09655 -0.214195 -0.205225 -0.2591 -0.10845 -0.04513 -0.232825 -0.030535 -0.32825 0.03817l-0.939625 0.67604c-0.0925 -0.0294125 -0.18545 -0.0577025 -0.279325 -0.084645l-0.40525 -1.084c-0.0411 -0.1104675 -0.1363 -0.19152 -0.251925 -0.21442 -0.1154 -0.0226775 -0.234175 0.015715 -0.314325 0.1014825l-0.790775 0.848475c-0.095425 -0.0105525 -0.191525 -0.020205 -0.2874 -0.028065l-0.6107 -0.98678C12.2277 0.310845 12.11835 0.25 12.0007 0.25s-0.227 0.060845 -0.288525 0.16076l-0.6107 0.98678c-0.0961 0.00786 -0.1922 0.0175125 -0.287625 0.028065l-0.790975 -0.848475c-0.080175 -0.0857675 -0.199175 -0.12416 -0.31435 -0.1014825 -0.115625 0.023125 -0.210825 0.1039525 -0.2519 0.21442l-0.405275 1.084c-0.09385 0.0269425 -0.1868 0.0554575 -0.279525 0.084645l-0.939425 -0.67604c-0.0954 -0.06893 -0.2198 -0.083525 -0.328475 -0.03817 -0.10845 0.044905 -0.18635 0.143245 -0.2052 0.2591l-0.18635 1.1430475c-0.086225 0.044675 -0.17155 0.0907 -0.25665 0.137625l-1.0539 -0.48047c-0.1071 -0.048945 -0.23195 -0.0388425 -0.329375 0.02672 -0.0979 0.06511 -0.15515 0.1767 -0.150675 0.294125l0.040425 1.1599c-0.075 0.059925 -0.1493 0.121225 -0.222725 0.1832l-1.129575 -0.266275c-0.11475 -0.026725 -0.235075 0.0074 -0.31815 0.090475 -0.083525 0.0833 -0.117425 0.203425 -0.0905 0.31815l0.266075 1.1298c-0.06175 0.0732 -0.122825 0.1473 -0.182775 0.222275l-1.159875 -0.0404c-0.1169825 -0.003375 -0.228795 0.05275 -0.2941325 0.15065 -0.06556 0.09745 -0.07544 0.222275 -0.0267175 0.3296l0.480475 1.054125c-0.0467 0.08465 -0.09295 0.169975 -0.137625 0.25665l-1.1428275 0.1859c-0.11608 0.01885 -0.2139725 0.09655 -0.2591 0.205225 -0.044905 0.108875 -0.0303125 0.23305 0.0381675 0.328475l0.6760425 0.93895c-0.0294125 0.092725 -0.0579275 0.1859 -0.08487 0.27975l-1.0840025 0.405275c-0.110015 0.041075 -0.1910675 0.136275 -0.21397 0.2519 -0.0229025 0.115425 0.0154925 0.2342 0.101485 0.314575l0.848025 0.790775c-0.0105525 0.095425 -0.0199825 0.1915 -0.028065 0.287375l-0.9865575 0.6107c-0.0999125 0.06175 -0.1607575 0.170875 -0.1607575 0.28875 0 0.117875 0.060845 0.227 0.1607575 0.2885l0.9865575 0.610725c0.0080825 0.0961 0.0175125 0.19195 0.028065 0.287375l-0.848025 0.791c-0.0859925 0.08015 -0.1243875 0.19915 -0.101485 0.31435 0.0229025 0.115625 0.103955 0.2106 0.21397 0.2519l1.0840025 0.405275c0.0269425 0.09385 0.0554575 0.187025 0.08487 0.27975L1.182915 16.1685c-0.0687025 0.09565 -0.0832975 0.219825 -0.0381675 0.32825 0.0451275 0.1089 0.143245 0.1866 0.259325 0.205225l1.1426025 0.1859c0.044675 0.086675 0.090475 0.172 0.137625 0.257075l-0.480475 1.0537c-0.048945 0.1071 -0.0388425 0.2317 0.0267175 0.3296 0.0655625 0.098125 0.17715 0.155375 0.2941325 0.15065l1.159425 -0.040625c0.0604 0.075425 0.12125 0.1493 0.183225 0.222725l-0.266075 1.130025c-0.026925 0.1145 0.006975 0.234175 0.0905 0.317475 0.08285 0.08375 0.2034 0.1172 0.31815 0.09025l1.129575 -0.26605c0.073425 0.062425 0.147725 0.12305 0.222725 0.18275l-0.040425 1.160125c-0.004475 0.117425 0.052775 0.2288 0.150675 0.29435 0.097425 0.06535 0.222275 0.075225 0.329375 0.026275l1.0539 -0.48025c0.084875 0.04715 0.1702 0.09295 0.25665 0.137625l0.18635 1.142375c0.01885 0.1163 0.09655 0.21465 0.2052 0.259325 0.10845 0.045125 0.233075 0.030525 0.328475 -0.03795l0.938975 -0.676475c0.092725 0.0294 0.1859 0.05815 0.27975 0.085075l0.405275 1.08355c0.041075 0.110025 0.136275 0.191525 0.2519 0.213975 0.1154 0.02335 0.234175 -0.01525 0.31435 -0.101475l0.790975 -0.848025c0.095425 0.011 0.191525 0.0202 0.287625 0.028725l0.6107 0.986575c0.061525 0.09945 0.170875 0.16075 0.288525 0.16075 0.11765 0 0.226975 -0.061075 0.288725 -0.16075l0.6107 -0.986575c0.0961 -0.008525 0.191975 -0.017725 0.2874 -0.028725l0.790775 0.848025c0.08015 0.086225 0.19915 0.124825 0.314325 0.101475 0.115625 -0.022675 0.210825 -0.10395 0.251925 -0.213975l0.405275 -1.08355c0.09385 -0.026925 0.187025 -0.055675 0.27975 -0.085075l0.939175 0.676475c0.095425 0.068475 0.2198 0.083075 0.32825 0.03795 0.108675 -0.044675 0.18635 -0.14325 0.205225 -0.259325l0.18635 -1.142375c0.086225 -0.044675 0.171525 -0.09115 0.256625 -0.137625l1.053925 0.48025c0.1071 0.04895 0.2317 0.039075 0.329375 -0.026275 0.0979 -0.06555 0.154925 -0.1767 0.15065 -0.29435l-0.0404 -1.160125c0.074975 -0.059925 0.1493 -0.120325 0.2225 -0.18275l1.129575 0.26605c0.114725 0.02695 0.235075 -0.0065 0.317925 -0.09025 0.083525 -0.0833 0.117425 -0.202975 0.090475 -0.317475l-0.26605 -1.130025c0.06195 -0.073425 0.123025 -0.1473 0.18275 -0.222725l1.1599 0.040625c0.116975 0.004725 0.228775 -0.052525 0.294125 -0.15065 0.06555 -0.0979 0.07565 -0.2225 0.0265 -0.3296l-0.480275 -1.0537c0.046925 -0.085075 0.09295 -0.1704 0.137425 -0.257075l1.142825 -0.1859c0.1163 -0.018625 0.2142 -0.096325 0.2591 -0.205225 0.0449 -0.108425 0.03075 -0.2326 -0.038175 -0.32825l-0.67605 -0.939175c0.0292 -0.092725 0.0577 -0.1859 0.084875 -0.27975l1.083775 -0.405275c0.11025 -0.0413 0.191525 -0.136275 0.213975 -0.2519 0.02335 -0.115425 -0.015275 -0.2342 -0.101475 -0.31435l-0.8478 -0.791c0.010325 -0.095425 0.01975 -0.1915 0.02805 -0.287375l0.98655 -0.610725c0.099925 -0.0615 0.160775 -0.17085 0.160775 -0.2885 0 -0.11765 -0.060625 -0.227 -0.16055 -0.28875ZM16.98625 19.895825c-0.37675 -0.081275 -0.616325 -0.45265 -0.5355 -0.8305 0.0806 -0.377425 0.45175 -0.617675 0.828275 -0.5364 0.37675 0.0806 0.616775 0.45265 0.535925 0.82985 -0.080825 0.3772 -0.452175 0.61765 -0.8287 0.53705Zm-0.335225 -2.26725c-0.34375 -0.073625 -0.681875 0.14505 -0.755525 0.489475l-0.35025 1.634525c-1.08085 0.4906 -2.28115 0.76315 -3.545225 0.76315 -1.293025 0 -2.519375 -0.286025 -3.61955 -0.7975l-0.350025 -1.634525c-0.07365 -0.343975 -0.411775 -0.5631 -0.7553 -0.48925l-1.443025 0.30985c-0.26785 -0.275725 -0.517075 -0.5694 -0.7461 -0.87945h7.021325c0.079475 0 0.13245 -0.014375 0.13245 -0.086675V14.4545c0 -0.0723 -0.052975 -0.086675 -0.13245 -0.086675h-2.0535v-1.57435h2.220975c0.20275 0 1.084025 0.057925 1.3658 1.18435 0.088225 0.34645 0.282 1.473325 0.41445 1.83415 0.132025 0.404575 0.66955 1.212875 1.2423 1.212875h3.49875c0.03975 0 0.082175 -0.0045 0.12685 -0.012575 -0.2427 0.329825 -0.508975 0.6419 -0.7957 0.933575l-1.47625 -0.317275Zm-9.7111 2.233125c-0.37675 0.081275 -0.74765 -0.158975 -0.828725 -0.5364 -0.0806 -0.378075 0.158975 -0.749225 0.535725 -0.8305 0.37675 -0.0806 0.7479 0.159625 0.828725 0.53705 0.0806 0.3772 -0.1592 0.749025 -0.535725 0.82985ZM4.2764 9.060975c0.156275 0.352725 -0.0027 0.766075 -0.354975 0.922125 -0.352275 0.1565 -0.7645 -0.0027 -0.920775 -0.35565 -0.15625 -0.35295 0.0027 -0.765625 0.354975 -0.9221 0.3525 -0.156275 0.7645 0.002675 0.920775 0.355625Zm-0.8186 1.940575 1.503175 -0.667975c0.321075 -0.142575 0.466125 -0.518875 0.32355 -0.8406l-0.309625 -0.700075H6.1925v5.48825h-2.456525c-0.213075 -0.749 -0.32735 -1.53955 -0.32735 -2.3566 0 -0.31185 0.016825 -0.620125 0.049175 -0.923Zm6.5965 -0.533025v-1.6177h2.8995c0.14975 0 1.0575 0.173125 1.0575 0.85185 0 0.56355 -0.69625 0.765625 -1.268775 0.765625H10.0543v0.000225Zm10.53735 1.456025c0 0.21465 -0.007875 0.42705 -0.023575 0.637875h-0.881475c-0.08825 0 -0.123725 0.057925 -0.123725 0.144375v0.404825c0 0.952875 -0.537275 1.1601 -1.0081 1.212875 -0.448375 0.0505 -0.945475 -0.1877 -1.006775 -0.462075 -0.2645 -1.4877 -0.705225 -1.8054 -1.40125 -2.35435 0.86375 -0.548525 1.7625 -1.3577 1.7625 -2.4408 0 -1.16955 -0.801775 -1.9062 -1.34825 -2.267475 -0.76675 -0.5054 -1.615675 -0.60665 -1.8447 -0.60665H5.599975c1.236225 -1.3797 2.911625 -2.35705 4.8066 -2.7127l1.074575 1.127325c0.242925 0.2544 0.645275 0.263825 0.89945 0.02065l1.2023 -1.15c2.5194 0.469025 4.652375 2.037325 5.881625 4.18895l-0.8231 1.85905c-0.142125 0.32175 0.002925 0.69805 0.323775 0.840625l1.584675 0.703875c0.0274 0.281325 0.041775 0.565575 0.041775 0.853625ZM11.4816 2.5215c0.2784 -0.2667275 0.72005 -0.256175 0.98655 0.022675 0.266075 0.27955 0.25595 0.721625 -0.023125 0.988125 -0.2784 0.26675 -0.72005 0.256425 -0.98655 -0.0229 -0.26585 -0.279075 -0.25575 -0.72115 0.023125 -0.9879Zm8.168175 6.5734c0.15605 -0.35275 0.568275 -0.511925 0.92055 -0.355425 0.352275 0.15625 0.511225 0.569375 0.354975 0.9221 -0.15605 0.35295 -0.568275 0.51215 -0.920775 0.35565 -0.35185 -0.15625 -0.5108 -0.56915 -0.35475 -0.922325Z" stroke-width="0.25"></path>
</svg>
